<svg xmlns="http://www.w3.org/2000/svg" viewBox="0 0 251.378 96">
  <title>qpony logo</title>
  <g>
    <circle cx="48.789" cy="51.109" r="43.214" style="fill: #fff"/>
    <g>
      <path d="M47.889,25.546a22.444,22.444,0,1,0,11.466,41.73l-8.839-8.791a5.556,5.556,0,0,1,7.857-7.857L67.2,59.409A22.429,22.429,0,0,0,47.889,25.546Z" style="fill: #e30613"/>
      <path d="M48,0A48,48,0,1,0,96,48,48,48,0,0,0,48,0ZM79.86,79.857a5.555,5.555,0,0,1-7.857,0l-4.6-4.57a33.571,33.571,0,1,1,7.844-7.871L79.86,72A5.553,5.553,0,0,1,79.86,79.857Z" style="fill: #e30613"/>
    </g>
    <g>
      <path d="M124.536,29.373a16.253,16.253,0,0,0-11.57,4.54V31.606a1.394,1.394,0,0,0-1.393-1.393h-4.205a1.393,1.393,0,0,0-1.391,1.393V76.237a1.392,1.392,0,0,0,1.391,1.392h4.205a1.394,1.394,0,0,0,1.393-1.392V62.113a18.187,18.187,0,0,0,3.9,2.637,17.915,17.915,0,0,0,20.623-3.684,18.3,18.3,0,0,0,5.3-13.211A17.988,17.988,0,0,0,137.438,34.8,17.552,17.552,0,0,0,124.536,29.373Zm11.205,18.617a11.979,11.979,0,0,1-1.59,5.919,11.557,11.557,0,0,1-4.242,4.388,11.031,11.031,0,0,1-5.66,1.563,11.871,11.871,0,0,1-5.867-1.562,10.807,10.807,0,0,1-4.231-4.176,12.135,12.135,0,0,1-1.486-6.01A11.571,11.571,0,0,1,116,39.6a10.92,10.92,0,0,1,8.19-3.392,11.27,11.27,0,0,1,9.978,5.86A11.957,11.957,0,0,1,135.741,47.989Z" style="fill: #1d1d1b"/>
      <path d="M163.2,29.373a17.581,17.581,0,0,0-13.577,5.954,18.9,18.9,0,0,0,.268,25.625,18.666,18.666,0,0,0,26.589,0,18.937,18.937,0,0,0,.269-25.657A17.6,17.6,0,0,0,163.2,29.373Zm-0.015,6.9a10.715,10.715,0,0,1,8,3.455,11.481,11.481,0,0,1,3.387,8.4,11.978,11.978,0,0,1-1.54,5.926,10.858,10.858,0,0,1-4.116,4.2,11.805,11.805,0,0,1-11.462,0,10.848,10.848,0,0,1-4.117-4.2,11.961,11.961,0,0,1-1.541-5.926,11.508,11.508,0,0,1,3.374-8.4A10.7,10.7,0,0,1,163.183,36.272Z" style="fill: #1d1d1b"/>
      <path d="M210.193,31.463a13.008,13.008,0,0,0-7.266-2.09,15.159,15.159,0,0,0-7.333,1.836,17.008,17.008,0,0,0-3.529,2.591V31.606a1.394,1.394,0,0,0-1.393-1.393h-4.2a1.394,1.394,0,0,0-1.393,1.393V64.283a1.394,1.394,0,0,0,1.393,1.392h4.2a1.394,1.394,0,0,0,1.393-1.392V52.3a42.712,42.712,0,0,1,.557-8.542,10.5,10.5,0,0,1,3.524-5.527,8.94,8.94,0,0,1,5.941-2.2,7.165,7.165,0,0,1,4.545,1.338,7.01,7.01,0,0,1,2.312,4.112l0,0.01a37.811,37.811,0,0,1,.428,7.2V64.283a1.393,1.393,0,0,0,1.392,1.392h4.2a1.393,1.393,0,0,0,1.392-1.392V47.464c0-4.679-.48-8.07-1.464-10.369A12.516,12.516,0,0,0,210.193,31.463Z" style="fill: #1d1d1b"/>
      <path d="M251.15,30.843a1.387,1.387,0,0,0-1.164-.63h-4.476a1.392,1.392,0,0,0-1.277.839l-9.646,22.26-9.94-22.273a1.394,1.394,0,0,0-1.271-.826H218.93a1.392,1.392,0,0,0-1.271,1.957l13.164,29.643-6.046,13.867a1.392,1.392,0,0,0,1.275,1.948h4.441a1.391,1.391,0,0,0,1.275-.834l19.493-44.632A1.392,1.392,0,0,0,251.15,30.843Z" style="fill: #1d1d1b"/>
    </g>
  </g>
</svg>
